<svg width="16" height="16" viewBox="0 0 16 16" fill="none" xmlns="http://www.w3.org/2000/svg">
<rect width="16" height="16" fill="black"/>
<mask id="path-1-inside-1_61_65" fill="white">
<path d="M14.5 8C14.5 11.5899 11.5899 14.5 8 14.5C4.41015 14.5 1.5 11.5899 1.5 8C1.5 4.41015 4.41015 1.5 8 1.5C11.5899 1.5 14.5 4.41015 14.5 8Z"/>
</mask>
<g clip-path="url(#paint0_angular_61_65_clip_path)" data-figma-skip-parse="true" mask="url(#path-1-inside-1_61_65)"><g transform="matrix(0.0065 0 0 0.0065 8 8)"><foreignObject x="-1307.69" y="-1307.69" width="2615.38" height="2615.38"><div xmlns="http://www.w3.org/1999/xhtml" style="background:conic-gradient(from 90deg,rgba(255, 255, 255, 0.0001) 0deg,rgba(255, 255, 255, 1) 360deg);height:100%;width:100%;opacity:1"></div></foreignObject></g></g><path d="M12.5 8C12.5 10.4853 10.4853 12.5 8 12.5V16.5C12.6944 16.5 16.5 12.6944 16.5 8H12.5ZM8 12.5C5.51472 12.5 3.5 10.4853 3.5 8H-0.5C-0.5 12.6944 3.30558 16.5 8 16.5V12.5ZM3.5 8C3.5 5.51472 5.51472 3.5 8 3.5V-0.5C3.30558 -0.5 -0.5 3.30558 -0.5 8H3.5ZM8 3.5C10.4853 3.5 12.5 5.51472 12.5 8H16.5C16.5 3.30558 12.6944 -0.5 8 -0.5V3.5Z" data-figma-gradient-fill="{&#34;type&#34;:&#34;GRADIENT_ANGULAR&#34;,&#34;stops&#34;:[{&#34;color&#34;:{&#34;r&#34;:1.0,&#34;g&#34;:1.0,&#34;b&#34;:1.0,&#34;a&#34;:9.9999997473787516e-05},&#34;position&#34;:0.0},{&#34;color&#34;:{&#34;r&#34;:1.0,&#34;g&#34;:1.0,&#34;b&#34;:1.0,&#34;a&#34;:1.0},&#34;position&#34;:1.0}],&#34;stopsVar&#34;:[],&#34;transform&#34;:{&#34;m00&#34;:13.0,&#34;m01&#34;:0.0,&#34;m02&#34;:1.50,&#34;m10&#34;:0.0,&#34;m11&#34;:13.0,&#34;m12&#34;:1.50},&#34;opacity&#34;:1.0,&#34;blendMode&#34;:&#34;NORMAL&#34;,&#34;visible&#34;:true}" mask="url(#path-1-inside-1_61_65)"/>
<defs>
<clipPath id="paint0_angular_61_65_clip_path"><path d="M12.5 8C12.5 10.4853 10.4853 12.5 8 12.5V16.5C12.6944 16.5 16.5 12.6944 16.5 8H12.5ZM8 12.5C5.51472 12.5 3.5 10.4853 3.5 8H-0.5C-0.5 12.6944 3.30558 16.5 8 16.5V12.5ZM3.5 8C3.5 5.51472 5.51472 3.5 8 3.5V-0.5C3.30558 -0.5 -0.5 3.30558 -0.5 8H3.5ZM8 3.5C10.4853 3.5 12.5 5.51472 12.5 8H16.5C16.5 3.30558 12.6944 -0.5 8 -0.5V3.5Z" mask="url(#path-1-inside-1_61_65)"/></clipPath></defs>
</svg>
