<svg width="16" height="16" viewBox="0 0 16 16" fill="none" xmlns="http://www.w3.org/2000/svg">
<path fill-rule="evenodd" clip-rule="evenodd" d="M8 1C11.866 1 15 4.13401 15 8C15 11.866 11.866 15 8 15C4.13401 15 1 11.866 1 8C1 4.13401 4.13401 1 8 1Z" fill="#2CAA41"/>
<path fill-rule="evenodd" clip-rule="evenodd" d="M10.4429 5.728L10.8259 6.04939C11.0376 6.22679 11.0651 6.54216 10.8876 6.7537C10.8876 6.75374 10.8876 6.75377 10.8875 6.75372L7.54347 10.7367C7.36584 10.9481 7.05054 10.9756 6.83895 10.7983L6.07291 10.1555L9.73839 5.78954C9.91602 5.57818 10.2313 5.55063 10.4429 5.728Z" fill="white"/>
<path fill-rule="evenodd" clip-rule="evenodd" d="M4.79245 8.37067L5.12793 7.99808C5.30979 7.79611 5.61969 7.77639 5.82568 7.95369L8.1775 9.97789L7.53763 10.7478C7.36113 10.9602 7.04588 10.9893 6.83351 10.8128C6.83089 10.8106 6.82829 10.8084 6.82572 10.8062L4.83665 9.08317C4.62793 8.90236 4.6053 8.58659 4.7861 8.37787C4.78819 8.37545 4.79031 8.37305 4.79245 8.37067Z" fill="white"/>
</svg>
