<svg width="16" height="16" viewBox="0 0 16 16" fill="none" xmlns="http://www.w3.org/2000/svg">
<path d="M8 15C11.866 15 15 11.866 15 8C15 4.13401 11.866 1 8 1C4.13401 1 1 4.13401 1 8C1 11.866 4.13401 15 8 15Z" fill="#E46205"/>
<path fill-rule="evenodd" clip-rule="evenodd" d="M8.50358 9.88625C8.71835 9.88625 8.89247 10.0604 8.89247 10.2751V11.2863C8.89247 11.501 8.71835 11.6751 8.50358 11.6751H7.49247C7.27769 11.6751 7.10358 11.501 7.10358 11.2863V10.2751C7.10358 10.0604 7.27769 9.88625 7.49247 9.88625H8.50358ZM8.50358 4.17462C8.71835 4.17462 8.89247 4.34873 8.89247 4.56351V8.65477C8.89247 8.86955 8.71835 9.04366 8.50358 9.04366H7.49247C7.27769 9.04366 7.10358 8.86955 7.10358 8.65477V4.56351C7.10358 4.34873 7.27769 4.17462 7.49247 4.17462H8.50358Z" fill="white"/>
</svg>
