<svg width="16" height="16" viewBox="0 0 16 16" fill="none" xmlns="http://www.w3.org/2000/svg">
<path d="M13 14H3C2.73485 13.9998 2.48062 13.8944 2.29313 13.7069C2.10564 13.5194 2.00021 13.2652 2 13V3C2.00021 2.73485 2.10564 2.48062 2.29313 2.29313C2.48062 2.10564 2.73485 2.00021 3 2H13C13.2652 2.00021 13.5194 2.10564 13.7069 2.29313C13.8944 2.48062 13.9998 2.73485 14 3V13C13.9998 13.2652 13.8944 13.5194 13.7069 13.7069C13.5194 13.8944 13.2652 13.9998 13 14ZM3 3V13H13V3H3ZM11.5008 12H10.5V9H11.5008V12ZM8.5 12H7.5V4.5H8.5V12ZM5.5 12H4.5V7.5H5.5V12Z" fill="#313133"/>
</svg>
