<svg width="16" height="16" viewBox="0 0 16 16" fill="none" xmlns="http://www.w3.org/2000/svg">
<path d="M12 15H4C3.73478 15 3.48043 14.8946 3.29289 14.7071C3.10536 14.5196 3 14.2652 3 14V4H2V3H5.5V1.8C5.5 1.58783 5.58429 1.38434 5.73431 1.23431C5.88434 1.08429 6.08783 1 6.3 1H9.7C9.91217 1 10.1157 1.08429 10.2657 1.23431C10.4157 1.38434 10.5 1.58783 10.5 1.8V3H14V4H13V14C13 14.2652 12.8946 14.5196 12.7071 14.7071C12.5196 14.8946 12.2652 15 12 15ZM4 4V14H12V4H4ZM6.5 2V3H9.5V2H6.5ZM10 12H9V6H10V12ZM7 12H6V6H7V12Z" fill="#313133"/>
</svg>
