<svg width="16" height="16" viewBox="0 0 16 16" fill="none" xmlns="http://www.w3.org/2000/svg">
<path d="M13 14H3C2.73478 14 2.48043 13.8946 2.29289 13.7071C2.10536 13.5196 2 13.2652 2 13V11H3V13H13V11H14V13C14 13.2652 13.8946 13.5196 13.7071 13.7071C13.5196 13.8946 13.2652 14 13 14ZM8 11.284C7.9343 11.2841 7.86921 11.2713 7.80847 11.2462C7.74773 11.2212 7.69252 11.1844 7.646 11.138L3.03 6.521L3.736 5.814L7.5 9.577V0.5H8.5V9.577L12.264 5.813L12.971 6.52L8.354 11.138C8.30748 11.1844 8.25227 11.2212 8.19153 11.2462C8.13079 11.2713 8.0657 11.2841 8 11.284Z" fill="#313133"/>
</svg>
