<svg width="16" height="16" viewBox="0 0 16 16" fill="none" xmlns="http://www.w3.org/2000/svg">
<path d="M8.00107 14.016C7.84214 14.0161 7.68965 13.9532 7.57707 13.841L3.60107 9.865L4.30807 9.158L8.00107 12.851L11.6931 9.158L12.4011 9.865L8.42507 13.841C8.3125 13.9532 8.16001 14.0161 8.00107 14.016ZM4.35507 6.841L3.64507 6.141L7.57407 2.163C7.62987 2.10661 7.69629 2.06185 7.7695 2.0313C7.84271 2.00075 7.92125 1.98502 8.00057 1.98502C8.0799 1.98502 8.15844 2.00075 8.23165 2.0313C8.30486 2.06185 8.37128 2.10661 8.42707 2.163L12.3561 6.137L11.6461 6.837L8.00107 3.154L4.35607 6.841H4.35507Z" fill="#313133"/>
</svg>
