<svg width="16" height="16" viewBox="0 0 16 16" fill="none" xmlns="http://www.w3.org/2000/svg">
<path d="M8.00003 15C7.42409 14.9988 6.86613 14.7993 6.42 14.4351C5.97387 14.0708 5.6668 13.5641 5.55043 13H3.00083C2.90774 13.0004 2.81641 12.9747 2.73721 12.9257C2.65802 12.8768 2.59414 12.8066 2.55283 12.7232C2.51037 12.6405 2.49226 12.5474 2.50061 12.4548C2.50897 12.3621 2.54345 12.2738 2.60003 12.2L3.50003 11V6.5C3.49812 5.39258 3.90543 4.32349 4.64373 3.49808C5.38202 2.67266 6.39925 2.14912 7.50003 2.028V1H8.49843V2.028C9.59915 2.14929 10.6163 2.67288 11.3545 3.49826C12.0928 4.32364 12.5002 5.39263 12.4984 6.5V11L13.4 12.2C13.4568 12.2739 13.4913 12.3624 13.4997 12.4551C13.5081 12.5479 13.4899 12.6412 13.4472 12.724C13.4059 12.8072 13.3422 12.8772 13.2631 12.926C13.1841 12.9748 13.0929 13.0004 13 13H10.4496C10.3331 13.564 10.026 14.0707 9.57992 14.4349C9.13382 14.7991 8.57593 14.9987 8.00003 15ZM6.58483 13C6.68835 13.2925 6.87998 13.5457 7.13335 13.7248C7.38672 13.9039 7.68936 14.0001 7.99963 14.0001C8.3099 14.0001 8.61255 13.9039 8.86591 13.7248C9.11928 13.5457 9.31091 13.2925 9.41443 13H6.58483ZM8.00003 3C7.07182 3.00064 6.18179 3.36954 5.52529 4.02573C4.8688 4.68192 4.49949 5.57179 4.49843 6.5V11.3328L3.99923 12H11.9992L11.4992 11.3328V6.5C11.4982 5.57221 11.1292 4.6827 10.4732 4.02658C9.81724 3.37045 8.92783 3.00127 8.00003 3Z" fill="#313133"/>
</svg>
