<svg width="16" height="16" viewBox="0 0 16 16" fill="none" xmlns="http://www.w3.org/2000/svg">
<path d="M13.272 13.98L9.74699 10.455C8.80032 11.2206 7.596 11.5938 6.38229 11.4977C5.16859 11.4016 4.03801 10.8435 3.22362 9.93848C2.40924 9.03343 1.97313 7.85044 2.00519 6.63335C2.03725 5.41627 2.53505 4.25787 3.39596 3.39696C4.25686 2.53606 5.41526 2.03826 6.63234 2.0062C7.84943 1.97413 9.03243 2.41025 9.93747 3.22463C10.8425 4.03901 11.4006 5.16959 11.4967 6.3833C11.5928 7.59701 11.2196 8.80133 10.454 9.748L13.979 13.273L13.272 13.98ZM6.75599 3C6.01316 3 5.28702 3.22026 4.66937 3.63293C4.05172 4.0456 3.57031 4.63215 3.28599 5.31841C3.00168 6.00467 2.92724 6.75982 3.07209 7.48839C3.21693 8.21695 3.57456 8.88621 4.09974 9.41154C4.62493 9.93686 5.29409 10.2947 6.02262 10.4397C6.75114 10.5847 7.50632 10.5105 8.19266 10.2264C8.87899 9.94225 9.46567 9.46098 9.8785 8.84345C10.2913 8.22591 10.5118 7.49982 10.512 6.757C10.5109 5.76108 10.1149 4.80623 9.41077 4.10192C8.70665 3.3976 7.75191 3.00132 6.75599 3Z" fill="#313133"/>
</svg>
