<svg width="16" height="16" viewBox="0 0 16 16" fill="none" xmlns="http://www.w3.org/2000/svg">
<path d="M7.99999 1.63636C8.47184 1.63636 8.93735 1.68829 9.39047 1.79031L9.65196 1.84918L10.4674 3.70815L12.4751 3.48866L12.6566 3.68635C13.292 4.37842 13.7687 5.20388 14.0482 6.10538L14.1269 6.35952L13.9703 6.57459L12.9323 7.99999L14.1269 9.64047L14.0482 9.8946C13.7687 10.7961 13.292 11.6216 12.6566 12.3136L12.4751 12.5113L10.4674 12.2918L9.65196 14.1508L9.39047 14.2097C8.93735 14.3117 8.47184 14.3636 7.99999 14.3636C7.52803 14.3636 7.06241 14.3117 6.60919 14.2096L6.34768 14.1507L6.24003 13.9052L5.53257 12.2918L3.5249 12.5113L3.34341 12.3136C2.70794 11.6215 2.23119 10.7959 1.95172 9.89429L1.87294 9.64012L2.02962 9.42504L3.0677 7.99999L1.87294 6.35986L1.95172 6.1057C2.23119 5.20408 2.70794 4.37851 3.34341 3.68635L3.5249 3.48866L5.53257 3.70815L6.34768 1.84927L6.60919 1.79038C7.06241 1.68831 7.52803 1.63636 7.99999 1.63636ZM7.99999 2.69696C7.69585 2.69696 7.39527 2.7228 7.1004 2.77374L6.44708 4.26363C6.29477 4.61084 5.93474 4.81903 5.55782 4.77783L3.95123 4.6022C3.56315 5.06931 3.25717 5.60009 3.04832 6.17207L4.0076 7.48896C4.22943 7.79354 4.22943 8.20645 4.00757 8.51107L3.04832 9.82792C3.25717 10.3999 3.56315 10.9307 3.95123 11.3978L5.55783 11.2222C5.93474 11.181 6.29477 11.3891 6.44711 11.7364L7.1004 13.2262C7.39527 13.2772 7.69585 13.303 7.99999 13.303C8.30404 13.303 8.60454 13.2772 8.89934 13.2263L9.5529 11.7364C9.70521 11.3891 10.0652 11.181 10.4422 11.2222L12.0487 11.3978C12.4368 10.9307 12.7427 10.4 12.9516 9.82815L11.9924 8.51103C11.7705 8.20645 11.7705 7.79354 11.9924 7.48897L12.9516 6.17183C12.7427 5.59994 12.4368 5.06924 12.0487 4.6022L10.4421 4.77783C10.0652 4.81903 9.70521 4.61084 9.55289 4.26362L8.89934 2.77369C8.60454 2.72279 8.30404 2.69696 7.99999 2.69696ZM7.99999 5.34848C9.45937 5.34848 10.6414 6.53617 10.6414 7.99999C10.6414 9.46382 9.45937 10.6515 7.99999 10.6515C6.54061 10.6515 5.35857 9.46382 5.35857 7.99999C5.35857 6.53617 6.54061 5.34848 7.99999 5.34848ZM7.99999 6.40908C7.1275 6.40908 6.41918 7.12079 6.41918 7.99999C6.41918 8.87919 7.1275 9.5909 7.99999 9.5909C8.87248 9.5909 9.5808 8.87919 9.5808 7.99999C9.5808 7.12079 8.87248 6.40908 7.99999 6.40908Z" fill="#313133"/>
</svg>
