<svg width="16" height="16" viewBox="0 0 16 16" fill="none" xmlns="http://www.w3.org/2000/svg">
<path d="M10.205 5.466L14.532 6.095C14.5874 6.10304 14.6395 6.12645 14.6823 6.16257C14.7251 6.19869 14.757 6.24607 14.7743 6.29936C14.7915 6.35264 14.7936 6.4097 14.7801 6.46407C14.7666 6.51844 14.7382 6.56795 14.698 6.607L11.568 9.659L12.307 13.969C12.3164 14.0241 12.3101 14.0807 12.289 14.1325C12.2679 14.1843 12.2328 14.2291 12.1876 14.262C12.1423 14.2948 12.0888 14.3144 12.0331 14.3185C11.9773 14.3225 11.9215 14.3109 11.872 14.285L8.001 12.25L4.131 14.285C4.08148 14.3109 4.02569 14.3225 3.96994 14.3185C3.91418 14.3144 3.86067 14.2948 3.81544 14.262C3.77021 14.2291 3.73506 14.1843 3.71395 14.1325C3.69285 14.0807 3.68663 14.0241 3.696 13.969L4.435 9.659L1.303 6.607C1.26285 6.56802 1.23441 6.51859 1.22088 6.46429C1.20735 6.40999 1.20927 6.35299 1.22644 6.29974C1.2436 6.24648 1.27532 6.19908 1.318 6.1629C1.36069 6.12672 1.41265 6.1032 1.468 6.095L5.795 5.466L7.732 1.545C7.75678 1.49481 7.7951 1.45256 7.84264 1.42301C7.89017 1.39347 7.94503 1.37781 8.001 1.37781C8.05697 1.37781 8.11182 1.39347 8.15936 1.42301C8.2069 1.45256 8.24522 1.49481 8.27 1.545L10.205 5.466Z" fill="#313133"/>
</svg>
