<svg width="16" height="16" viewBox="0 0 16 16" fill="none" xmlns="http://www.w3.org/2000/svg">
<path fill-rule="evenodd" clip-rule="evenodd" d="M8 8.45C9.91364 8.4502 11.4727 6.91344 11.5 5C11.5 3.067 9.933 1.5 8 1.5C6.067 1.5 4.5 3.067 4.5 5C4.52734 6.91344 6.08636 8.4502 8 8.45ZM8 2.55C9.36142 2.54973 10.4728 3.63885 10.5 5C10.5 6.38071 9.38071 7.5 8 7.5C6.61929 7.5 5.5 6.38071 5.5 5C5.52723 3.63885 6.63858 2.54973 8 2.55ZM14.855 11.645C13.82 10.615 11.235 9.5 8 9.5C4.765 9.5 2.18 10.615 1.145 11.645L1 11.795V15H15V11.795L14.855 11.645ZM2 14V12.22C3 11.345 5.32 10.5 8 10.5C10.68 10.5 13 11.345 14 12.22V14H2Z" fill="black"/>
</svg>
