<svg width="16" height="16" viewBox="0 0 16 16" fill="none" xmlns="http://www.w3.org/2000/svg">
<path d="M8 12.5C6.56978 12.4957 5.16887 12.0942 3.95352 11.3402C2.73816 10.5862 1.75615 9.50946 1.117 8.22999L1 7.99999L1.117 7.76999C1.75283 6.48794 2.7341 5.40895 3.95021 4.65462C5.16632 3.9003 6.56894 3.50061 8 3.50061C9.43106 3.50061 10.8337 3.9003 12.0498 4.65462C13.2659 5.40895 14.2472 6.48794 14.883 7.76999L15 7.99999L14.883 8.22999C14.2445 9.50997 13.2626 10.5872 12.0471 11.3412C10.8316 12.0953 9.43039 12.4965 8 12.5ZM8 4.49999C6.79823 4.49936 5.61851 4.8227 4.585 5.43599C3.54893 6.05788 2.69549 6.94237 2.111 7.99999C2.69687 9.05824 3.5521 9.94279 4.59 10.564C5.62205 11.1764 6.79992 11.4997 8 11.5C9.20609 11.4952 10.389 11.1682 11.4263 10.5529C12.4636 9.93754 13.3176 9.05617 13.9 7.99999C13.3098 6.94232 12.4522 6.05817 11.413 5.43599C10.3804 4.82241 9.20119 4.49903 8 4.49999ZM8 10.88C7.43035 10.8802 6.87343 10.7114 6.39969 10.3951C5.92594 10.0788 5.55665 9.62905 5.33851 9.10281C5.12038 8.57658 5.0632 7.99747 5.17422 7.43874C5.28523 6.88001 5.55944 6.36675 5.96218 5.96388C6.36491 5.561 6.87808 5.28661 7.43677 5.1754C7.99546 5.0642 8.57459 5.12117 9.1009 5.33912C9.62721 5.55707 10.0771 5.92621 10.3936 6.39984C10.7101 6.87348 10.879 7.43034 10.879 7.99999C10.8782 8.7634 10.5747 9.49532 10.0349 10.0352C9.49523 10.5751 8.76341 10.8789 8 10.88ZM8 6.11999C7.62813 6.11979 7.26455 6.22988 6.95526 6.43634C6.64596 6.6428 6.40484 6.93634 6.26239 7.27985C6.11995 7.62336 6.08257 8.0014 6.155 8.36615C6.22743 8.7309 6.4064 9.06597 6.66929 9.329C6.93217 9.59202 7.26715 9.77117 7.63186 9.84379C7.99657 9.91641 8.37463 9.87924 8.71821 9.73698C9.0618 9.59472 9.35547 9.35375 9.56209 9.04457C9.76871 8.73538 9.879 8.37186 9.879 7.99999C9.87847 7.50172 9.68037 7.02399 9.32813 6.67157C8.97589 6.31914 8.49827 6.12078 8 6.11999Z" fill="#313133"/>
</svg>
