<svg width="16" height="16" viewBox="0 0 16 16" fill="none" xmlns="http://www.w3.org/2000/svg">
<path fill-rule="evenodd" clip-rule="evenodd" d="M3.95352 11.3402C5.16887 12.0942 6.56978 12.4957 8 12.5C9.43039 12.4965 10.8316 12.0953 12.0471 11.3412C13.2626 10.5872 14.2445 9.50998 14.883 8.23001L15 8.00001L14.883 7.77001C14.2472 6.48795 13.2659 5.40897 12.0498 4.65464C10.8337 3.90031 9.43106 3.50063 8 3.50063C6.56894 3.50063 5.16632 3.90031 3.95021 4.65464C2.7341 5.40897 1.75283 6.48795 1.117 7.77001L1 8.00001L1.117 8.23001C1.75615 9.50947 2.73816 10.5862 3.95352 11.3402ZM6.39958 10.3951C6.87333 10.7115 7.43024 10.8802 7.9999 10.88C8.7633 10.879 9.49512 10.5752 10.0348 10.0352C10.5746 9.49535 10.8781 8.76342 10.8789 8.00001C10.8789 7.43036 10.71 6.8735 10.3935 6.39987C10.077 5.92623 9.6271 5.55709 9.10079 5.33914C8.57448 5.12119 7.99536 5.06422 7.43667 5.17542C6.87798 5.28663 6.36481 5.56102 5.96208 5.9639C5.55934 6.36677 5.28513 6.88003 5.17411 7.43876C5.0631 7.9975 5.12028 8.5766 5.33841 9.10283C5.55655 9.62907 5.92584 10.0788 6.39958 10.3951ZM6.95515 6.43636C7.26445 6.22991 7.62803 6.11981 7.9999 6.12001C8.49817 6.12081 8.97579 6.31916 9.32803 6.67159C9.68027 7.02401 9.87837 7.50174 9.8789 8.00001C9.8789 8.37188 9.76861 8.7354 9.56199 9.04459C9.35537 9.35377 9.0617 9.59474 8.71811 9.737C8.37453 9.87926 7.99647 9.91644 7.63176 9.84381C7.26705 9.77119 6.93207 9.59204 6.66918 9.32902C6.4063 9.066 6.22733 8.73092 6.1549 8.36617C6.08247 8.00142 6.11985 7.62338 6.26229 7.27987C6.40474 6.93637 6.64586 6.64282 6.95515 6.43636Z" fill="#313133"/>
</svg>
