<svg width="16" height="16" viewBox="0 0 16 16" fill="none" xmlns="http://www.w3.org/2000/svg">
<path fill-rule="evenodd" clip-rule="evenodd" d="M3.09106 12.3636V6.90912H12.9091V12.3636H3.09106ZM14 3.54554C14 2.99325 13.5523 2.54554 13 2.54554H3.00017C2.44788 2.54554 2.00017 2.99325 2.00017 3.54554V12.4545C2.00017 13.0068 2.44788 13.4545 3.00017 13.4545H13C13.5523 13.4545 14 13.0068 14 12.4545V3.54554ZM3.09106 5.81822V3.63643H12.9091V5.81822H3.09106ZM3.79627 5.11302C3.89856 5.21531 4.03729 5.27277 4.18196 5.27277C4.32662 5.27277 4.46535 5.21531 4.56765 5.11302C4.66994 5.01073 4.7274 4.87199 4.7274 4.72733C4.7274 4.58267 4.66994 4.44393 4.56765 4.34164C4.46535 4.23935 4.32662 4.18188 4.18196 4.18188C4.03729 4.18188 3.89856 4.23935 3.79627 4.34164C3.69398 4.44393 3.63651 4.58267 3.63651 4.72733C3.63651 4.87199 3.69398 5.01073 3.79627 5.11302ZM5.97806 5.11302C6.08035 5.21531 6.21908 5.27277 6.36375 5.27277C6.50841 5.27277 6.64714 5.21531 6.74943 5.11302C6.85173 5.01073 6.90919 4.87199 6.90919 4.72733C6.90919 4.58267 6.85173 4.44393 6.74943 4.34164C6.64714 4.23935 6.50841 4.18188 6.36375 4.18188C6.21908 4.18188 6.08035 4.23935 5.97806 4.34164C5.87576 4.44393 5.8183 4.58267 5.8183 4.72733C5.8183 4.87199 5.87576 5.01073 5.97806 5.11302Z" fill="#313133"/>
</svg>
