<svg width="16" height="16" viewBox="0 0 16 16" fill="none" xmlns="http://www.w3.org/2000/svg">
<path fill-rule="evenodd" clip-rule="evenodd" d="M14 10.4602V11V11.2288V12H13.2136H13V13V14H12H4H3V13V12H2.78027H2V11.23V11V10.4613C2 10.0372 2.35834 9.69267 2.79984 9.69267H2.84876C3.40766 9.66337 5.59682 9.1396 5.59682 8.16002C5.59682 7.75241 5.33529 7.46654 5.0238 7.12607C4.56522 6.62482 3.99837 6.00521 3.99837 4.70455C3.99837 1.63223 7.99388 2.01539 7.99388 2.01539C7.99388 2.01539 11.9894 1.63106 11.9894 4.70337C11.9894 6.0032 11.4227 6.62295 10.9641 7.12439C10.6526 7.46509 10.391 7.75118 10.391 8.15885C10.391 9.13843 12.5801 9.66337 13.139 9.69149H13.2002C13.6417 9.69149 14 10.036 14 10.4602ZM4 11.0003H12V11H12.9324C13.0447 10.4996 12.6212 10.4544 12.0026 10.3884C11.7338 10.3598 11.4282 10.3272 11.1137 10.2516C9.10192 9.56494 9.07012 7.53665 9.81614 6.75627L9.86332 6.70696C10.5957 5.94161 11.3621 5.14073 10.8545 4.0097C10.3359 2.85553 8 3.01138 8 3.01138V3.00317C8 3.00317 5.65308 2.84733 5.13086 4.00267C4.61923 5.13459 5.39185 5.93809 6.12841 6.70408L6.17407 6.75159C6.92377 7.53197 6.89197 9.5626 4.87036 10.2504C4.55491 10.3259 4.24841 10.3586 3.97878 10.3874C3.35687 10.4538 2.93115 10.4992 3.04436 11H4V11.0003ZM4 12V13H12V12H4Z" fill="#313133"/>
</svg>
