<svg width="16" height="16" viewBox="0 0 16 16" fill="none" xmlns="http://www.w3.org/2000/svg">
<path fill-rule="evenodd" clip-rule="evenodd" d="M1 8C1 4.13401 4.13401 1 8 1C9.85652 1 11.637 1.7375 12.9497 3.05025C14.2625 4.36301 15 6.14348 15 8C15 11.866 11.866 15 8 15C4.13401 15 1 11.866 1 8ZM14 8C14 4.68629 11.3137 2 8 2C4.68629 2 2 4.68629 2 8C2 11.3137 4.68629 14 8 14C11.3137 14 14 11.3137 14 8Z" fill="black"/>
<path d="M8 1C9.85652 1 11.6374 1.73705 12.9502 3.0498C14.2629 4.36256 15 6.14348 15 8C15 11.866 11.866 15 8 15C4.13401 15 1 11.866 1 8C1 4.13401 4.13401 1 8 1ZM8 2C4.68629 2 2 4.68629 2 8C2 11.3137 4.68629 14 8 14C11.3137 14 14 11.3137 14 8C14 4.68629 11.3137 2 8 2ZM12.3555 9.14453L11.6445 9.85547L8 6.20508L4.35547 9.85547L3.64453 9.14453L8 4.79492L12.3555 9.14453Z" fill="#313133"/>
</svg>
