<svg width="16" height="16" viewBox="0 0 16 16" fill="none" xmlns="http://www.w3.org/2000/svg">
<path d="M8.001 14.25C6.34822 14.2439 4.76539 13.5823 3.59998 12.4103C2.43457 11.2383 1.78181 9.6518 1.785 7.99901H2.75C2.74794 8.69246 2.88273 9.3795 3.14665 10.0208C3.41057 10.662 3.79842 11.2449 4.288 11.736C4.77291 12.2281 5.351 12.6186 5.98851 12.8847C6.62602 13.1508 7.31017 13.2872 8.001 13.286C8.91074 13.2822 9.80403 13.0432 10.5941 12.5922C11.3842 12.1411 12.0442 11.4935 12.51 10.712H10.664V9.75001H13.75C13.8826 9.75001 14.0098 9.80269 14.1036 9.89646C14.1973 9.99023 14.25 10.1174 14.25 10.25V13.35H13.292V11.278C12.7405 12.187 11.9637 12.9382 11.0368 13.4588C10.1098 13.9795 9.06416 14.252 8.001 14.25ZM14.215 8.00101H13.25C13.2525 7.3073 13.118 6.61993 12.8542 5.97831C12.5904 5.33669 12.2026 4.75344 11.713 4.26201C11.2283 3.76991 10.6504 3.3793 10.0131 3.113C9.37573 2.8467 8.69173 2.71004 8.001 2.71101C7.09115 2.71494 6.19776 2.954 5.40755 3.405C4.61733 3.856 3.95713 4.50362 3.491 5.28501H5.337V6.25001H2.25C2.11739 6.25001 1.99021 6.19733 1.89645 6.10357C1.80268 6.0098 1.75 5.88262 1.75 5.75001V2.64301H2.709V4.72001C3.26095 3.81141 4.03805 3.06065 4.96514 2.54034C5.89222 2.02004 6.93789 1.74782 8.001 1.75001C9.65291 1.75663 11.2348 2.41811 12.3997 3.58938C13.5646 4.76065 14.2174 6.34609 14.215 7.99801V8.00101Z" fill="#313133"/>
</svg>
