<svg width="16" height="16" viewBox="0 0 16 16" fill="none" xmlns="http://www.w3.org/2000/svg">
<path d="M14.0016 14H2.0016C1.93583 14.0001 1.87069 13.9873 1.80989 13.9622C1.74909 13.9371 1.69382 13.9003 1.64725 13.8539C1.60067 13.8075 1.56369 13.7523 1.53843 13.6916C1.51316 13.6309 1.5001 13.5658 1.5 13.5L1.5 9C1.5 8.86739 1.55268 8.74021 1.64645 8.64645C1.74021 8.55268 1.86739 8.5 2 8.5H14C14.1326 8.5 14.2598 8.55268 14.3536 8.64645C14.4473 8.74021 14.5 8.86739 14.5 9V13.5C14.4998 13.6323 14.4473 13.7591 14.3539 13.8528C14.2605 13.9464 14.1339 13.9994 14.0016 14ZM2.5008 9.5V13H13.5V9.5H2.5008ZM7 11.7504H4V10.7504H7V11.7496V11.7504ZM14.0008 7.5H2.0008C1.86826 7.5 1.74112 7.44746 1.64725 7.35389C1.55337 7.26031 1.50042 7.13334 1.5 7.0008V2.5008C1.5 2.36812 1.55265 2.24086 1.6464 2.14696C1.74014 2.05307 1.86732 2.00021 2 2H14C14.1325 2.00042 14.2594 2.05324 14.3531 2.14691C14.4468 2.24059 14.4996 2.36752 14.5 2.5V7C14.4998 7.13241 14.4472 7.25934 14.3536 7.35304C14.2601 7.44674 14.1332 7.49958 14.0008 7.5ZM2.5 3V6.5H13.5V3H2.5ZM7 5.2504H4V4.2504H7V5.2496V5.2504Z" fill="#313133"/>
</svg>
