<svg width="16" height="16" viewBox="0 0 16 16" fill="none" xmlns="http://www.w3.org/2000/svg">
<path fill-rule="evenodd" clip-rule="evenodd" d="M8 1C11.866 1 15 4.13401 15 8C15 11.866 11.866 15 8 15C4.13401 15 1 11.866 1 8C1 4.13401 4.13401 1 8 1Z" fill="#E9F4FE"/>
<path fill-rule="evenodd" clip-rule="evenodd" d="M8.54156 6.70585C8.67043 6.70585 8.77489 6.81032 8.77489 6.93918L8.77478 10.2335L9.4671 10.2343C9.61143 10.2343 9.72843 10.3513 9.72843 10.4957V11.3319C9.72843 11.4762 9.61143 11.5932 9.4671 11.5932H6.58425C6.43992 11.5932 6.32291 11.4762 6.32291 11.3319V10.4957C6.32291 10.3513 6.43992 10.2343 6.58425 10.2343L7.28145 10.2335V8.08125L7.14726 8.08201C7.00293 8.08201 6.88593 7.96501 6.88593 7.82068V6.97076C6.88593 6.82643 7.00293 6.70942 7.14726 6.70942L7.47923 6.70862C7.49099 6.7068 7.50304 6.70585 7.51532 6.70585H8.54156ZM8.4048 4.41605C8.54913 4.41605 8.66613 4.53305 8.66613 4.67738V5.64805C8.66613 5.79238 8.54913 5.90938 8.4048 5.90938H7.43413C7.2898 5.90938 7.1728 5.79238 7.1728 5.64805V4.67738C7.1728 4.53305 7.2898 4.41605 7.43413 4.41605H8.4048Z" fill="#248CF5"/>
</svg>
