<svg width="16" height="16" viewBox="0 0 16 16" fill="none" xmlns="http://www.w3.org/2000/svg">
<path d="M1 8C1 4.13401 4.13401 1 8 1C11.866 1 15 4.13401 15 8C15 11.866 11.866 15 8 15C4.13401 15 1 11.866 1 8Z" fill="#D12B2B"/>
<path fill-rule="evenodd" clip-rule="evenodd" d="M7.40098 11.3333C7.40098 11.1492 7.55022 11 7.73432 11H8.36897C8.55307 11 8.70231 11.1492 8.70231 11.3333V11.9667C8.70231 12.1508 8.55307 12.3 8.36897 12.3H7.73432C7.55022 12.3 7.40098 12.1508 7.40098 11.9667V11.3333ZM5.82898 6.7093C5.63636 6.7093 5.48328 6.54644 5.50147 6.35469C5.50976 6.26729 5.51927 6.18121 5.52913 6.11959C5.65181 5.3533 5.9625 4.78976 6.46121 4.42897C6.85178 4.14299 7.33172 4 7.90104 4C8.6491 4 9.27054 4.2032 9.76538 4.60959C10.2602 5.01599 10.5076 5.61805 10.5076 6.41579C10.5076 6.90498 10.4001 7.31701 10.1849 7.65191C10.0591 7.85511 9.81751 8.11475 9.46004 8.43084L9.10752 8.74128C8.91555 8.91061 8.78811 9.10816 8.72522 9.33394C8.70703 9.39942 8.69197 9.54461 8.68098 9.68277C8.66687 9.86016 8.52074 9.99997 8.34279 9.99997H7.67681C7.48385 9.99997 7.3314 9.83669 7.34794 9.64444C7.37686 9.30823 7.42537 8.83333 7.47902 8.68201C7.56508 8.4393 7.78685 8.15991 8.14432 7.84382L8.50677 7.52209C8.62593 7.42049 9.23994 6.9355 9.23994 6.5061C9.23994 6.0767 9.17325 5.91877 8.98105 5.6831C8.78884 5.44744 8.35616 5.37158 7.96559 5.37158C7.58163 5.37158 7.25352 5.48596 7.09299 5.7757C7.01864 5.9099 6.95784 6.05306 6.91399 6.19912C6.89721 6.25502 6.88291 6.32961 6.87128 6.40447C6.84466 6.57591 6.70154 6.7093 6.52805 6.7093C6.48869 6.7093 6.45251 6.7093 6.42473 6.7093C6.21348 6.7093 6.04315 6.7093 5.91372 6.7093C5.88894 6.7093 5.85999 6.7093 5.82898 6.7093Z" fill="white"/>
</svg>
